# xmcd CD database file
#
# Track frame offsets:
#	150
#	30045
#	46180
#	67015
#	82840
#	140682
#	154735
#	173465
#	199283
#	226728
#	242035
#
# Disc length: 3822 seconds
#
# Revision: 0
# Processed by: cddbd v1.5.1PL0 Copyright (c) Steve Scherf et al.
# Submitted via: CDex 1.51
#
DISCID=7e0eec0b
DTITLE=Celestial Navigations - Ice
DYEAR=1992
DGENRE=New Age
TTITLE0=War Babies
TTITLE1=King of the World
TTITLE2=Back Porch
TTITLE3=Janitor II
TTITLE4=Ice
TTITLE5=The Mystery
TTITLE6=Reginald
TTITLE7=Intervention
TTITLE8=The Hiker
TTITLE9=Life Goes On
TTITLE10=Rock and Roll
EXTD=YEAR: 1992
EXTT0=
EXTT1=
EXTT2=
EXTT3=
EXTT4=
EXTT5=
EXTT6=
EXTT7=
EXTT8=
EXTT9=
EXTT10=
PLAYORDER=
